<svg width="33" height="22" viewBox="0 0 33 22" fill="none" xmlns="http://www.w3.org/2000/svg">
<path d="M29.8416 0.683929H3.57302C3.46362 0.683929 3.35402 0.683929 3.24481 0.684583C3.15249 0.685257 3.06039 0.686308 2.96829 0.688884C2.76742 0.694453 2.56483 0.706601 2.36648 0.743145C2.16495 0.780323 1.97742 0.840966 1.79447 0.936448C1.61462 1.03021 1.44996 1.15284 1.30727 1.29917C1.16451 1.44551 1.04488 1.61402 0.953436 1.79858C0.860271 1.98612 0.801074 2.17841 0.765057 2.38515C0.729216 2.58854 0.717285 2.79618 0.711872 3.00186C0.709397 3.09628 0.708336 3.19069 0.707735 3.28508C0.707097 3.39727 0.707309 3.50938 0.707309 3.62177V18.7463C0.707309 18.8587 0.707097 18.9706 0.707735 19.083C0.708336 19.1774 0.709397 19.2718 0.711872 19.3662C0.717285 19.5717 0.729216 19.7794 0.765057 19.9827C0.801074 20.1895 0.860271 20.3817 0.953436 20.5693C1.04488 20.7539 1.16451 20.9226 1.30727 21.0687C1.44996 21.2153 1.61462 21.3379 1.79447 21.4314C1.97742 21.5272 2.16495 21.5878 2.36648 21.625C2.56483 21.6613 2.76742 21.6736 2.96829 21.6792C3.06039 21.6814 3.15249 21.6826 3.24481 21.6831C3.35402 21.6839 3.46362 21.6839 3.57302 21.6839H29.8416C29.9508 21.6839 30.0604 21.6839 30.1696 21.6831C30.2617 21.6826 30.3538 21.6814 30.4463 21.6792C30.6467 21.6736 30.8493 21.6613 31.0481 21.625C31.2494 21.5878 31.4369 21.5272 31.6199 21.4314C31.8 21.3379 31.9641 21.2153 32.1071 21.0687C32.2496 20.9226 32.3693 20.7539 32.461 20.5693C32.5543 20.3817 32.6135 20.1895 32.6493 19.9827C32.6852 19.7794 32.6968 19.5717 32.7022 19.3662C32.7048 19.2718 32.706 19.1774 32.7064 19.083C32.7073 18.9706 32.7073 18.8587 32.7073 18.7463V3.62177C32.7073 3.50938 32.7073 3.39727 32.7064 3.28508C32.706 3.19069 32.7048 3.09628 32.7022 3.00186C32.6968 2.79618 32.6852 2.58854 32.6493 2.38515C32.6135 2.17841 32.5543 1.98612 32.461 1.79858C32.3693 1.61402 32.2496 1.44551 32.1071 1.29917C31.9641 1.15284 31.8 1.03021 31.6199 0.936448C31.4369 0.840966 31.2494 0.780323 31.0481 0.743145C30.8493 0.706601 30.6467 0.694453 30.4463 0.688884C30.3538 0.686308 30.2617 0.685257 30.1696 0.684583C30.0604 0.683929 29.9508 0.683929 29.8416 0.683929Z" fill="black"/>
<path d="M29.8413 1.38388L30.1645 1.38451C30.252 1.38515 30.3396 1.38612 30.4276 1.38858C30.5807 1.39282 30.7598 1.40132 30.9268 1.432C31.0719 1.45879 31.1936 1.49954 31.3104 1.5605C31.4258 1.62057 31.5314 1.69928 31.6237 1.79371C31.7163 1.88878 31.7932 1.99726 31.8525 2.11678C31.9117 2.23559 31.9512 2.35977 31.9771 2.50963C32.007 2.67892 32.0153 2.86303 32.0195 3.02095C32.0218 3.11009 32.023 3.19924 32.0234 3.2905C32.0242 3.40086 32.0242 3.51117 32.0242 3.62175V18.7463C32.0242 18.8569 32.0242 18.967 32.0234 19.0797C32.023 19.1688 32.0218 19.258 32.0194 19.3473C32.0153 19.505 32.007 19.689 31.9768 19.8603C31.9512 20.0081 31.9117 20.1323 31.8522 20.2517C31.793 20.3709 31.7163 20.4792 31.6241 20.5737C31.5313 20.6688 31.426 20.7473 31.3093 20.8079C31.1933 20.8686 31.0718 20.9093 30.9281 20.9358C30.7578 20.9669 30.5712 20.9755 30.4306 20.9794C30.3422 20.9815 30.2542 20.9827 30.164 20.9831C30.0566 20.984 29.9488 20.9839 29.8413 20.9839H3.57279C3.57136 20.9839 3.56997 20.9839 3.56852 20.9839C3.4623 20.9839 3.35587 20.9839 3.24773 20.9831C3.15955 20.9827 3.07156 20.9815 2.9865 20.9795C2.84274 20.9755 2.656 20.967 2.48705 20.936C2.34212 20.9093 2.22061 20.8686 2.10314 20.8072C1.98755 20.7471 1.88232 20.6687 1.7895 20.5734C1.6974 20.4791 1.62086 20.3711 1.56168 20.2517C1.50245 20.1324 1.46282 20.0078 1.43676 19.8583C1.40663 19.6873 1.39836 19.504 1.39423 19.3474C1.39186 19.2577 1.39088 19.1681 1.39032 19.0789L1.38989 18.8158L1.38991 18.7463V3.62175L1.38989 3.55227L1.3903 3.28966C1.39088 3.19999 1.39186 3.11033 1.39423 3.02074C1.39836 2.86396 1.40663 2.6806 1.43701 2.50823C1.46284 2.36001 1.50245 2.23543 1.56199 2.11556C1.62071 1.99706 1.69738 1.8889 1.78997 1.79401C1.88219 1.69944 1.98776 1.62082 2.10409 1.56018C2.2203 1.49952 2.34204 1.45879 2.48698 1.43206C2.65397 1.4013 2.83321 1.39282 2.98671 1.38856C3.07421 1.38612 3.16171 1.38515 3.24856 1.38453L3.57279 1.38388H29.8413Z" fill="white"/>
<path d="M9.44311 7.7471C9.7171 7.39579 9.90303 6.9241 9.85399 6.44208C9.4529 6.46252 8.96345 6.71333 8.68008 7.06491C8.42565 7.36598 8.20046 7.85743 8.25916 8.31924C8.70941 8.35927 9.15923 8.08854 9.44311 7.7471Z" fill="black"/>
<path d="M9.84883 8.40941C9.19497 8.36949 8.63903 8.78982 8.32678 8.78982C8.01435 8.78982 7.5362 8.42953 7.01903 8.43924C6.3459 8.44938 5.72132 8.83951 5.37974 9.46002C4.67716 10.7013 5.19433 12.5426 5.87755 13.5536C6.20933 14.0538 6.60919 14.6045 7.13607 14.5847C7.63388 14.5647 7.829 14.2543 8.43411 14.2543C9.03877 14.2543 9.21454 14.5847 9.7415 14.5747C10.288 14.5647 10.6296 14.0743 10.9614 13.5736C11.342 13.0035 11.4978 12.4529 11.5076 12.4227C11.4978 12.4127 10.4539 12.0022 10.4442 10.7712C10.4343 9.74045 11.2638 9.25017 11.3029 9.21977C10.8344 8.50961 10.1026 8.42953 9.84883 8.40941Z" fill="black"/>
<path d="M15.5421 7.0145C16.9633 7.0145 17.9529 8.01868 17.9529 9.4807C17.9529 10.9479 16.9429 11.9573 15.5065 11.9573H13.933V14.5224H12.7961V7.0145H15.5421V7.0145ZM13.933 10.9792H15.2374C16.2272 10.9792 16.7906 10.4329 16.7906 9.48592C16.7906 8.53904 16.2272 7.99791 15.2425 7.99791H13.933V10.9792Z" fill="black"/>
<path d="M18.2498 12.9668C18.2498 12.0093 18.9654 11.4214 20.2344 11.3486L21.6961 11.2602V10.8388C21.6961 10.23 21.2951 9.86578 20.6253 9.86578C19.9907 9.86578 19.5947 10.1779 19.4984 10.667H18.463C18.5239 9.67841 19.3461 8.95001 20.6658 8.95001C21.9601 8.95001 22.7873 9.65242 22.7873 10.7502V14.5224H21.7367V13.6223H21.7114C21.4018 14.2311 20.7267 14.616 20.0263 14.616C18.9807 14.616 18.2498 13.9501 18.2498 12.9668ZM21.6961 12.4725V12.0407L20.3815 12.1239C19.7267 12.1707 19.3562 12.4673 19.3562 12.9355C19.3562 13.4142 19.742 13.7264 20.3308 13.7264C21.0972 13.7264 21.6961 13.1852 21.6961 12.4725Z" fill="black"/>
<path d="M23.7794 16.536V15.6254C23.8604 15.6462 24.0431 15.6462 24.1345 15.6462C24.6421 15.6462 24.9162 15.4277 25.0836 14.8658C25.0836 14.8554 25.1801 14.5328 25.1801 14.5276L23.2515 9.04886H24.439L25.7893 13.5027H25.8095L27.1597 9.04886H28.3169L26.317 14.8085C25.8604 16.1354 25.3325 16.562 24.226 16.562C24.1345 16.562 23.8604 16.5515 23.7794 16.536Z" fill="black"/>
</svg>
