<svg width="40" height="22" viewBox="0 0 40 22" fill="none" xmlns="http://www.w3.org/2000/svg">
<path d="M29.2247 0.609131H10.7753C5.00989 0.609131 0.292725 5.36779 0.292725 11.1839C0.292725 17.0001 5.00989 21.7587 10.7753 21.7587H29.2247C34.9901 21.7587 39.7073 17.0001 39.7073 11.1839C39.7073 5.36779 34.9901 0.609131 29.2247 0.609131Z" fill="white"/>
<path d="M29.2247 1.46569C30.5193 1.46569 31.7772 1.72477 32.9617 2.23236C34.1096 2.72409 35.1369 3.42731 36.0279 4.32088C36.9137 5.21445 37.6108 6.25607 38.0982 7.41401C38.6014 8.60896 38.8582 9.87794 38.8582 11.1839C38.8582 12.4899 38.6014 13.7589 38.0982 14.9538C37.6108 16.1118 36.9137 17.1481 36.0279 18.047C35.1421 18.9405 34.1096 19.6438 32.9617 20.1355C31.7772 20.6431 30.5193 20.9022 29.2247 20.9022H10.7753C9.48072 20.9022 8.22281 20.6431 7.03827 20.1355C5.89043 19.6438 4.86314 18.9405 3.97211 18.047C3.08634 17.1534 2.38924 16.1118 1.9018 14.9538C1.39864 13.7589 1.14181 12.4899 1.14181 11.1839C1.14181 9.87794 1.39864 8.60896 1.9018 7.41401C2.38924 6.25607 3.08634 5.21974 3.97211 4.32088C4.85789 3.42731 5.89043 2.72409 7.03827 2.23236C8.22281 1.72477 9.48072 1.46569 10.7753 1.46569H29.2247ZM29.2247 0.609131H10.7753C5.00989 0.609131 0.292725 5.36779 0.292725 11.1839C0.292725 17.0001 5.00989 21.7587 10.7753 21.7587H29.2247C34.9901 21.7587 39.7073 17.0001 39.7073 11.1839C39.7073 5.36779 34.9901 0.609131 29.2247 0.609131Z" fill="#3C4043"/>
<path d="M19.0893 11.9347V15.1336H18.083V7.23419H20.7508C21.427 7.23419 22.0035 7.46155 22.4752 7.91627C22.9574 8.37098 23.1985 8.92616 23.1985 9.5818C23.1985 10.2533 22.9574 10.8085 22.4752 11.2579C22.0087 11.7073 21.4322 11.9294 20.7508 11.9294H19.0893V11.9347ZM19.0893 8.20707V10.9618H20.7718C21.1701 10.9618 21.5056 10.8243 21.7676 10.5547C22.0349 10.285 22.1712 9.9572 22.1712 9.58708C22.1712 9.22225 22.0349 8.89972 21.7676 8.63007C21.5056 8.34983 21.1754 8.21236 20.7718 8.21236H19.0893V8.20707Z" fill="#3C4043"/>
<path d="M25.8298 9.55008C26.5741 9.55008 27.1611 9.751 27.5909 10.1528C28.0207 10.5547 28.2355 11.1046 28.2355 11.8025V15.1336H27.2764V14.3828H27.2345C26.8204 15.0014 26.2648 15.3081 25.573 15.3081C24.9807 15.3081 24.488 15.1336 24.0897 14.7793C23.6914 14.4251 23.4922 13.9862 23.4922 13.4575C23.4922 12.897 23.7018 12.4529 24.1211 12.125C24.5404 11.7919 25.1013 11.628 25.7984 11.628C26.3959 11.628 26.8885 11.7391 27.2712 11.9611V11.7285C27.2712 11.3742 27.1349 11.0781 26.8571 10.8296C26.5793 10.5811 26.2543 10.4595 25.8822 10.4595C25.3214 10.4595 24.8759 10.6974 24.5509 11.1786L23.6651 10.6181C24.1526 9.90433 24.8759 9.55008 25.8298 9.55008ZM24.53 13.4733C24.53 13.7377 24.64 13.9598 24.8654 14.1343C25.0855 14.3087 25.3476 14.3986 25.6464 14.3986C26.0709 14.3986 26.4483 14.24 26.7785 13.9228C27.1087 13.6055 27.2764 13.2354 27.2764 12.8071C26.9619 12.5586 26.5269 12.4317 25.9661 12.4317C25.5573 12.4317 25.2166 12.5322 24.944 12.7278C24.6662 12.934 24.53 13.1825 24.53 13.4733Z" fill="#3C4043"/>
<path d="M33.7069 9.72455L30.3525 17.5076H29.3147L30.5622 14.7846L28.3503 9.72455H29.4458L31.0391 13.6055H31.0601L32.6115 9.72455H33.7069Z" fill="#3C4043"/>
<path d="M15.086 11.2896C15.086 10.9586 15.0566 10.6419 15.0021 10.3374H10.7839V12.0822L13.2133 12.0827C13.1147 12.6633 12.7976 13.1582 12.3118 13.4881V14.6202H13.7578C14.6022 13.8318 15.086 12.6665 15.086 11.2896Z" fill="#4285F4"/>
<path d="M12.3125 13.4881C11.91 13.762 11.3916 13.9222 10.7852 13.9222C9.61376 13.9222 8.62002 13.126 8.26413 12.0526H6.77246V13.2201C7.51148 14.6995 9.03041 15.7147 10.7852 15.7147C11.998 15.7147 13.0169 15.3123 13.7586 14.6196L12.3125 13.4881Z" fill="#34A853"/>
<path d="M8.12361 11.1865C8.12361 10.8851 8.1734 10.5938 8.26408 10.3199V9.15247H6.7724C6.46684 9.76422 6.29492 10.4548 6.29492 11.1865C6.29492 11.9183 6.46736 12.6088 6.7724 13.2206L8.26408 12.0531C8.1734 11.7792 8.12361 11.4879 8.12361 11.1865Z" fill="#FABB05"/>
<path d="M10.7852 8.4503C11.4472 8.4503 12.04 8.6803 12.508 9.12973L13.7895 7.83802C13.0112 7.10677 11.9965 6.65787 10.7852 6.65787C9.03094 6.65787 7.51148 7.67305 6.77246 9.15246L8.26413 10.3199C8.62002 9.24658 9.61377 8.4503 10.7852 8.4503Z" fill="#E94235"/>
</svg>
