<svg width="39" height="10" viewBox="0 0 39 10" fill="none" xmlns="http://www.w3.org/2000/svg">
<path fill-rule="evenodd" clip-rule="evenodd" d="M3.4039 2.35388H6.06888C7.49975 2.35388 8.03839 3.12054 7.95515 4.24831C7.81825 6.10779 6.75542 7.13655 5.34657 7.13655H4.63527C4.44196 7.13655 4.31195 7.27197 4.25967 7.63892L3.95423 9.7707C3.93428 9.90903 3.86549 9.99058 3.7623 10H2.09136C1.93382 10 1.8781 9.87263 1.91938 9.59669L2.94024 2.75796C2.98083 2.48421 3.12185 2.35388 3.4039 2.35388Z" fill="#44A1D1"/>
<path fill-rule="evenodd" clip-rule="evenodd" d="M14.9737 2.22717C15.8728 2.22717 16.7024 2.74337 16.5889 4.02986C16.4541 5.55516 15.6774 6.40482 14.4557 6.40846H13.3901C13.2367 6.40846 13.1624 6.54097 13.1225 6.81253L12.9168 8.20096C12.8859 8.41064 12.7841 8.51403 12.6341 8.51403H11.6414C11.4832 8.51403 11.4282 8.407 11.4633 8.16747L12.284 2.60212C12.3245 2.32837 12.4229 2.22644 12.5983 2.22644H14.9737V2.22717ZM13.3564 5.20642H14.1647C14.6703 5.18603 15.006 4.81545 15.0397 4.14708C15.0604 3.73427 14.7969 3.43867 14.378 3.44086L13.6164 3.4445L13.3564 5.20642ZM19.2869 8.08811C19.3777 8.00074 19.4699 7.9556 19.4569 8.06335L19.4245 8.32109C19.408 8.45578 19.4582 8.52713 19.5766 8.52713H20.4585C20.607 8.52713 20.6793 8.46379 20.7157 8.22062L21.2592 4.61086C21.2867 4.42957 21.2447 4.34075 21.1147 4.34075H20.1455C20.0581 4.34075 20.0154 4.39244 19.9927 4.53368L19.957 4.75574C19.9384 4.87151 19.8882 4.89189 19.8414 4.7754C19.677 4.36332 19.2574 4.17839 18.6685 4.19077C17.3085 4.22062 16.3915 5.31344 16.2931 6.71424C16.2175 7.79761 16.9508 8.64872 17.918 8.64872C18.6197 8.64872 18.934 8.42739 19.2869 8.08811ZM18.5495 7.53332C17.9641 7.53332 17.5561 7.03896 17.6408 6.43321C17.7261 5.82746 18.273 5.3331 18.8584 5.3331C19.4438 5.3331 19.8517 5.82746 19.7671 6.43321C19.6818 7.03969 19.1349 7.53332 18.5495 7.53332ZM22.9865 4.3291H22.0957C21.9113 4.3291 21.8364 4.4718 21.8948 4.65382L23.0051 8.09466L21.9113 9.73135C21.8198 9.86823 21.8907 9.99273 22.0193 9.99273H23.0244C23.1743 9.99273 23.2473 9.95196 23.3229 9.83765L26.7378 4.65382C26.843 4.49437 26.7935 4.32691 26.6208 4.32691L25.6701 4.32619C25.5071 4.32619 25.4417 4.39462 25.3482 4.53805L23.9242 6.72517L23.2906 4.53441C23.2507 4.39899 23.1578 4.3291 22.9865 4.3291Z" fill="#2C3F8F"/>
<path fill-rule="evenodd" clip-rule="evenodd" d="M30.2911 2.22717C31.1902 2.22717 32.0198 2.74337 31.9063 4.02986C31.7715 5.55516 30.9948 6.40481 29.7731 6.40846H28.7075C28.5541 6.40846 28.4798 6.54096 28.4399 6.81253L28.2342 8.20096C28.2033 8.41064 28.1015 8.51402 27.9515 8.51402H26.9588C26.8006 8.51402 26.7456 8.407 26.7807 8.16746L27.6013 2.60212C27.6419 2.32837 27.7403 2.22644 27.9157 2.22644H30.2911V2.22717ZM28.6745 5.20642H29.4828C29.9884 5.18603 30.3241 4.81545 30.3585 4.14708C30.3791 3.73427 30.1157 3.43867 29.6967 3.44086L28.9352 3.4445L28.6745 5.20642ZM34.605 8.08811C34.6958 8.00074 34.788 7.9556 34.7749 8.06335L34.7426 8.32109C34.7261 8.45578 34.7763 8.52713 34.8946 8.52713H35.7765C35.9251 8.52713 35.9974 8.46379 36.0338 8.22061L36.5773 4.61086C36.6048 4.42957 36.5628 4.34075 36.4328 4.34075H35.4635C35.3762 4.34075 35.3335 4.39244 35.3108 4.53368L35.275 4.75574C35.2565 4.87151 35.2062 4.89189 35.1595 4.7754C34.9951 4.36332 34.5754 4.17839 33.9866 4.19076C32.6266 4.22062 31.7096 5.31344 31.6112 6.71424C31.5355 7.79761 32.2688 8.64872 33.2361 8.64872C33.9377 8.64872 34.2514 8.42738 34.605 8.08811ZM33.8669 7.53332C33.2815 7.53332 32.8735 7.03896 32.9581 6.43321C33.0434 5.82746 33.5903 5.3331 34.1758 5.3331C34.7612 5.3331 35.1691 5.82746 35.0845 6.43321C34.9999 7.03969 34.4523 7.53332 33.8669 7.53332ZM37.9345 8.53368H36.9164C36.8352 8.53368 36.7795 8.4667 36.7919 8.38443L37.6869 2.38807C37.6993 2.3058 37.7756 2.23882 37.8561 2.23882H38.8742C38.9554 2.23882 39.0111 2.3058 38.9987 2.38807L38.1038 8.38443C38.0921 8.4667 38.0157 8.53368 37.9345 8.53368Z" fill="#44A1D1"/>
<path fill-rule="evenodd" clip-rule="evenodd" d="M1.73716 0H4.4049C5.1561 0 6.04764 0.0254823 6.64337 0.582454C7.04168 0.954496 7.2508 1.54641 7.20265 2.18202C7.03893 4.33782 5.82063 5.54569 4.18614 5.54569H2.87084C2.64658 5.54569 2.49868 5.70295 2.43539 6.12814L2.06805 8.59993C2.04397 8.7601 1.97862 8.85475 1.85892 8.8664H0.21549C0.0331925 8.8664 -0.0314716 8.7186 0.0159946 8.39898L1.19921 0.468875C1.24668 0.151438 1.41109 0 1.73716 0Z" fill="#2C3F8F"/>
<path fill-rule="evenodd" clip-rule="evenodd" d="M2.47363 5.87906L2.93935 2.75783C2.97994 2.48408 3.12165 2.35303 3.40369 2.35303H6.06868C6.50963 2.35303 6.86666 2.42583 7.14596 2.56053C6.87836 4.47971 5.70546 5.5456 4.17003 5.5456H2.85405C2.6807 5.5456 2.55137 5.63952 2.47363 5.87906Z" fill="#26317B"/>
</svg>
