<svg width="34" height="25" viewBox="0 0 34 25" fill="none" xmlns="http://www.w3.org/2000/svg">
<path fill-rule="evenodd" clip-rule="evenodd" d="M31.5634 23.2747V21.0065H31.038V22.3252C30.8445 22.0877 30.5708 21.9559 30.181 21.9559C29.4347 21.9559 28.8813 22.5099 28.8813 23.2747C28.8813 24.0395 29.434 24.5935 30.181 24.5935C30.5681 24.5935 30.8445 24.4616 31.038 24.2241V24.5425H31.5634V23.2747ZM14.3935 22.0348H15.3614L15.3608 22.038V22.4602H14.3929V23.6726C14.3929 23.9363 14.531 24.0948 14.8074 24.0948C14.9832 24.0977 15.1562 24.0519 15.3054 23.963L15.4716 24.4088C15.2517 24.525 15.0054 24.5884 14.754 24.5934C14.0905 24.5934 13.8695 24.2502 13.8695 23.6701V22.4806H13.3169V22.0348H13.8695V21.2707H14.3935V22.0348ZM6.73598 22.9582V24.5406H6.15658V23.09C6.15658 22.6685 5.93564 22.4309 5.54849 22.4309C5.16133 22.4309 4.88498 22.6443 4.88498 23.09V24.5406H4.35966V23.09C4.35966 22.6685 4.13871 22.4309 3.75156 22.4309C3.3644 22.4309 3.08806 22.6443 3.08806 23.09V24.5387H2.56273V22.0068H3.08806V22.3252C3.27312 22.0816 3.574 21.9429 3.88906 21.9559C4.30626 21.9559 4.57993 22.1113 4.77351 22.4016C5.02249 22.0616 5.37961 21.9559 5.71336 21.9559C6.34883 21.9559 6.73598 22.3513 6.73598 22.9582ZM20.2822 21.9559C19.9911 21.9497 19.7181 22.09 19.5633 22.3252V22.0068H19.0379V24.5387H19.5633V23.1168C19.5633 22.6946 19.7842 22.4309 20.144 22.4309C20.2654 22.4356 20.3859 22.4534 20.5031 22.4838L20.6693 22.0088C20.5426 21.9783 20.4128 21.9606 20.2822 21.9559ZM11.7678 21.9559C12.1823 21.9559 12.5694 22.0349 12.8458 22.2196L12.5741 22.6175C12.4079 22.5386 12.0781 22.4068 11.7444 22.4068C11.44 22.4068 11.2191 22.5405 11.2191 22.7252C11.2191 22.8831 11.4373 22.9627 11.6863 22.9888L11.9627 23.0149C12.5414 23.0945 12.8751 23.3078 12.8751 23.7536C12.8751 24.2286 12.4606 24.5712 11.6863 24.5712C11.4086 24.5712 10.9387 24.5164 10.5516 24.2528L10.8279 23.8574C11.0848 24.0347 11.3953 24.1272 11.7124 24.121C12.1275 24.121 12.3485 23.9873 12.3485 23.8026C12.3485 23.6708 12.1549 23.5651 11.8505 23.5122L11.5742 23.4861C10.9941 23.4065 10.6897 23.1696 10.6897 22.7474C10.6897 22.2463 11.1043 21.9559 11.7678 21.9559ZM20.8629 23.2764C20.8637 24.0397 21.3889 24.5936 22.2453 24.5936C22.6325 24.5936 22.9088 24.5146 23.1852 24.3032L22.9088 23.9077C22.7132 24.0589 22.4697 24.1426 22.218 24.1453C21.7507 24.1453 21.3883 23.8027 21.3883 23.3015C21.3883 22.8004 21.746 22.4603 22.218 22.4603C22.4697 22.463 22.7132 22.5467 22.9088 22.6979L23.1852 22.3024C22.9088 22.0916 22.6325 22.012 22.2453 22.012C21.4162 21.9592 20.8637 22.5124 20.8629 23.2764ZM15.8586 23.2747C15.8586 22.4832 16.3839 21.9559 17.1582 21.9559V21.9566C17.9045 21.9566 18.4025 22.4838 18.4025 23.2753V23.4861H16.4393C16.4941 23.9344 16.8812 24.1452 17.2403 24.1452C17.5213 24.1381 17.7925 24.0458 18.0146 23.8816L18.291 24.2509C17.9838 24.4803 17.603 24.6013 17.213 24.5935C16.4113 24.5935 15.8586 24.0662 15.8586 23.2747ZM17.1311 22.4309C17.5183 22.4309 17.7946 22.6684 17.822 23.0638H16.3849C16.4676 22.6945 16.7186 22.4309 17.1311 22.4309ZM9.97074 22.0088V23.2747V24.5445H9.44541V24.2261C9.25183 24.4636 8.97549 24.5954 8.58833 24.5954C7.84139 24.5954 7.2887 24.0414 7.2887 23.2767C7.2887 22.5119 7.84206 21.9579 8.58833 21.9579C8.97816 21.9579 9.25183 22.0897 9.44541 22.3272V22.0088H9.97074ZM7.84193 23.2746C7.84193 22.7996 8.14632 22.4309 8.67164 22.4309C9.1696 22.4309 9.47265 22.8002 9.47265 23.2746C9.47265 23.7758 9.1389 24.1183 8.67164 24.1183C8.14632 24.1445 7.84193 23.749 7.84193 23.2746ZM27.5543 22.3252C27.7091 22.09 27.9821 21.9497 28.2732 21.9559H28.2725C28.4032 21.9606 28.5329 21.9783 28.6597 22.0088L28.4935 22.4838C28.3762 22.4534 28.2558 22.4356 28.1343 22.4309C27.7746 22.4309 27.5536 22.6946 27.5536 23.1168V24.5387H27.029V22.0068H27.5543V22.3252ZM26.2272 23.2747V22.0088H25.7019V22.3272C25.5083 22.0897 25.2346 21.9579 24.8448 21.9579C24.0985 21.9579 23.5452 22.5119 23.5452 23.2767C23.5452 24.0414 24.0978 24.5954 24.8448 24.5954C25.2319 24.5954 25.5083 24.4636 25.7019 24.2261V24.5445H26.2272V23.2747ZM24.9281 22.4309C24.4028 22.4309 24.0984 22.7996 24.0984 23.2746C24.0984 23.749 24.4028 24.1445 24.9281 24.1183C25.3953 24.1183 25.7291 23.7758 25.7291 23.2746C25.7291 22.8002 25.4261 22.4309 24.9281 22.4309ZM30.2641 22.4309C29.7387 22.4309 29.4344 22.7996 29.4344 23.2746H29.4337C29.4337 23.7496 29.7381 24.1451 30.2641 24.1183C30.7313 24.1183 31.0651 23.7758 31.0651 23.2746C31.0651 22.8002 30.762 22.4309 30.2641 22.4309Z" fill="#0B0B0B"/>
<path d="M12.2376 2.80869H21.831V17.7361H12.2376V2.80869Z" fill="#FF5F00"/>
<path d="M13.2054 10.2723C13.2061 7.36304 14.6012 4.61374 16.9928 2.80862C12.9125 -0.251846 7.0518 0.19302 3.53014 3.83052C0.00846869 7.46803 0.00846869 13.0766 3.53014 16.7141C7.0518 20.3517 12.9125 20.7965 16.9928 17.7361C14.6012 15.9309 13.2061 13.1816 13.2054 10.2723Z" fill="#EB001B"/>
<path d="M33.1109 10.2724C33.1137 13.9051 30.9413 17.2201 27.5169 18.8089C24.0925 20.3977 20.0177 19.9811 17.024 17.7361C19.4162 15.9315 20.8115 13.1819 20.8115 10.2724C20.8115 7.36296 19.4162 4.61339 17.024 2.80871C20.0177 0.563767 24.0925 0.14718 27.5169 1.73597C30.9413 3.32475 33.1137 6.6398 33.1109 10.2724Z" fill="#F79E1B"/>
</svg>
