<svg width="42" height="14" viewBox="0 0 42 14" fill="none" xmlns="http://www.w3.org/2000/svg">
<path d="M16.0773 0.532914L10.689 13.3718H7.16325L4.50234 3.12731C4.36929 2.5286 4.16972 2.26251 3.70406 1.99641C2.90579 1.59728 1.57533 1.13162 0.444443 0.93205L0.510965 0.532914H6.16541C6.89716 0.532914 7.56239 0.998574 7.69543 1.86337L9.09241 9.31393L12.5516 0.599436H16.0773V0.532914ZM29.8475 9.18088C29.8475 5.78822 25.1909 5.58865 25.1909 4.12515C25.1909 3.65949 25.6566 3.19382 26.5879 3.06078C27.0536 2.99426 28.384 2.92773 29.8475 3.65949L30.4462 0.93205C29.648 0.665959 28.6501 0.333344 27.3197 0.333344C24.0601 0.333344 21.7318 2.06294 21.7318 4.59081C21.7318 6.45345 23.3948 7.45129 24.6588 8.04999C25.9227 8.6487 26.3884 9.04784 26.3884 9.64654C26.3884 10.5113 25.3905 10.9105 24.3927 10.9105C22.7296 10.9105 21.7318 10.4448 21 10.1122L20.4013 12.9062C21.1996 13.2388 22.5965 13.5714 24.06 13.5714C27.5192 13.5714 29.781 11.8418 29.8475 9.18088ZM38.4955 13.3718H41.5556L38.8946 0.532914H36.0342C35.3689 0.532914 34.8368 0.932052 34.6372 1.46423L29.648 13.3718H33.1072L33.7724 11.4427H38.0298L38.4955 13.3718ZM34.7702 8.84827L36.4998 4.05862L37.4977 8.84827H34.7702ZM20.8004 0.532914L18.073 13.3718H14.7469L17.4743 0.532914H20.8004Z" fill="#1434CB"/>
</svg>
